<?xml version="1.0" standalone="no"?>
<!DOCTYPE svg PUBLIC "-//W3C//DTD SVG 20010904//EN"
 "http://www.w3.org/TR/2001/REC-SVG-20010904/DTD/svg10.dtd">
<svg version="1.0" xmlns="http://www.w3.org/2000/svg"
 width="165.000000pt" height="162.000000pt" viewBox="0 0 165.000000 162.000000"
 preserveAspectRatio="xMidYMid meet">

<g transform="translate(0.000000,162.000000) scale(0.100000,-0.100000)"
fill="#000000" stroke="none">
<path d="M745 1425 c-156 -35 -284 -106 -413 -229 -60 -58 -122 -137 -122
-157 0 -8 49 -142 110 -299 l111 -285 -65 -112 c-64 -111 -65 -112 -43 -126
68 -44 59 -50 142 97 l76 133 -111 285 c-60 156 -110 289 -110 295 0 19 91
113 159 165 305 231 679 186 812 -97 50 -106 63 -176 64 -335 0 -80 -3 -153
-7 -162 -7 -16 -27 -18 -225 -18 l-218 0 -36 99 -35 98 32 36 c55 60 67 154
29 227 -31 61 -114 110 -185 110 -108 0 -210 -97 -210 -200 0 -108 80 -195
193 -209 l49 -6 44 -119 c24 -66 50 -123 57 -128 6 -4 137 -8 289 -8 330 0
301 -15 320 163 20 198 -15 407 -89 535 -15 24 -51 71 -81 103 -119 129 -340
188 -537 144z m15 -390 c64 -33 76 -117 24 -166 -20 -19 -37 -24 -76 -24 -43
0 -53 4 -79 33 -79 89 24 212 131 157z"/>
</g>
</svg>
